<?xml version="1.0" standalone="no"?>
<!DOCTYPE svg PUBLIC "-//W3C//DTD SVG 20010904//EN"
 "http://www.w3.org/TR/2001/REC-SVG-20010904/DTD/svg10.dtd">
<svg version="1.0" xmlns="http://www.w3.org/2000/svg"
 width="260.000000pt" height="260.000000pt" viewBox="0 0 260.000000 260.000000"
 preserveAspectRatio="xMidYMid meet">
<metadata>
Created by potrace 1.14, written by Peter Selinger 2001-2017
</metadata>
<g transform="translate(0.000000,260.000000) scale(0.100000,-0.100000)"
fill="#000000" stroke="none">
<path d="M60 1675 c0 -470 1 -856 3 -856 1 -1 252 -7 557 -14 367 -8 565 -9
584 -2 69 24 65 133 -6 155 -19 7 -220 14 -495 18 l-463 7 0 272 0 272 38 7
c20 3 128 6 240 6 229 0 262 7 280 59 8 22 8 40 0 62 -19 54 -43 58 -315 51
l-243 -5 0 321 0 322 491 0 c544 0 547 0 568 62 15 42 -10 93 -51 107 -21 7
-225 11 -609 11 l-579 0 0 -855z"/>
<path d="M1677 1970 l-409 -5 -19 -24 c-27 -33 -24 -84 5 -118 l24 -28 530 -5
530 -5 -307 -475 c-168 -261 -418 -640 -554 -842 -203 -301 -247 -373 -247
-401 0 -70 -32 -67 636 -66 329 1 628 4 664 8 l65 6 0 85 0 85 -539 -4 c-488
-4 -539 -3 -533 12 8 22 300 458 721 1077 l357 525 -3 85 -3 85 -40 7 c-42 7
-200 7 -878 -2z"/>
</g>
</svg>
